<svg width="512" height="512" xmlns="http://www.w3.org/2000/svg">

 <g>
  <title>background</title>
  <rect fill="none" id="canvas_background" height="402" width="582" y="-1" x="-1"/>
 </g>
 <g>
  <title>Layer 1</title>
  <path stroke="#ffffff" stroke-opacity="0" fill="#202020" id="svg_2" d="m437.017,74.985c-46.352,-46.356 -110.285,-74.985 -181.017,-74.985s-134.662,28.629 -181.014,74.985c-46.352,46.356 -74.986,110.283 -74.986,181.015s28.634,134.661 74.986,181.014c46.352,46.354 110.282,74.986 181.014,74.986s134.665,-28.632 181.017,-74.986c46.351,-46.353 74.983,-110.282 74.983,-181.014s-28.632,-134.659 -74.983,-181.015z"/>
  <path id="svg_3" fill-rule="evenodd" fill="#FFFFFF" d="m275.559,203.692l0,-20.978c0,-10.064 6.664,-12.473 11.491,-12.473c4.675,0 29.338,0 29.338,0l0,-44.795l-40.4,0c-44.933,0 -54.995,33.168 -54.995,54.716l0,23.529l-26.087,0l0,31.61l0,20.699l26.365,0c0,59.393 0,130.695 0,130.695l52.309,0c0,0 0,-72.295 0,-130.695l38.693,0l1.707,-20.554l3.12,-31.754l-41.541,0z" clip-rule="evenodd"/>
 </g>
</svg>