<svg width="512" height="512" xmlns="http://www.w3.org/2000/svg">

 <g>
  <title>background</title>
  <rect fill="none" id="canvas_background" height="402" width="582" y="-1" x="-1"/>
 </g>
 <g>
  <title>Layer 1</title>
  <path stroke="#ffffff" stroke-opacity="0" fill="#202020" id="svg_2" d="m437.013,74.963c-46.352,-46.198 -110.279,-74.963 -181.015,-74.963c-70.737,0 -134.663,28.765 -181.015,74.963c-46.347,46.342 -74.983,110.392 -74.983,181.11c0,70.566 28.636,134.625 74.983,180.959c46.352,46.2 110.278,74.968 181.015,74.968c70.736,0 134.663,-28.768 181.015,-74.968c46.346,-46.334 74.987,-110.392 74.987,-180.959c0,-70.718 -28.641,-134.768 -74.987,-181.11z"/>
  <path id="svg_3" fill-rule="evenodd" fill="#FFFFFF" d="m384.138,201.512c0,0 -2.686,-18.847 -10.491,-27.066c-9.915,-10.769 -21.118,-10.912 -26.076,-11.624c-36.572,-2.69 -91.426,-2.69 -91.426,-2.69l-0.293,0c0,0 -54.708,0 -91.29,2.69c-5.235,0.712 -16.292,0.855 -26.213,11.624c-7.8,8.22 -10.486,27.066 -10.486,27.066s-2.701,22.107 -2.701,43.929l0,2.837l0,17.994c0,22.107 2.701,43.935 2.701,43.935s2.687,18.847 10.486,27.207c9.921,10.91 22.967,10.488 28.919,11.619c20.836,2.127 88.877,2.837 88.877,2.837s54.854,-0.283 91.426,-2.837c4.958,-0.709 16.161,-0.709 26.076,-11.619c7.806,-8.36 10.491,-27.207 10.491,-27.207s2.55,-21.827 2.55,-43.935l0,-16.861l0,-3.97c0,-21.822 -2.55,-43.929 -2.55,-43.929l0,0zm-84.479,51.586l-70.737,38.115l0,-58.668l0,-17.855l32.039,17.433l38.698,20.975z" clip-rule="evenodd"/>
 </g>
</svg>